<?xml version="1.0" encoding="UTF-8"?>
<svg width="256px" height="228px" viewBox="0 0 256 228" version="1.1" xmlns="http://www.w3.org/2000/svg" xmlns:xlink="http://www.w3.org/1999/xlink" preserveAspectRatio="xMidYMid">
    <g>
        <path d="M210.483381,73.8236374 C207.827698,72.9095503 205.075867,72.0446761 202.24247,71.2267368 C202.708172,69.3261098 203.135596,67.4500894 203.515631,65.6059664 C209.753843,35.3248922 205.675082,10.9302478 191.747328,2.89849283 C178.392359,-4.80289661 156.551327,3.22703567 134.492936,22.4237776 C132.371761,24.2697233 130.244662,26.2241201 128.118477,28.2723861 C126.701777,26.917204 125.287358,25.6075897 123.876584,24.3549348 C100.758745,3.82852863 77.5866802,-4.82157937 63.6725966,3.23341515 C50.3303869,10.9571328 46.3792156,33.8904224 51.9945178,62.5880206 C52.5367729,65.3599011 53.1706189,68.1905639 53.8873982,71.068617 C50.6078941,71.9995641 47.4418534,72.9920277 44.4125156,74.0478303 C17.3093297,83.497195 0,98.3066828 0,113.667995 C0,129.533287 18.5815786,145.446423 46.8116526,155.095373 C49.0394553,155.856809 51.3511025,156.576778 53.7333796,157.260293 C52.9600965,160.37302 52.2875179,163.423318 51.7229345,166.398431 C46.3687351,194.597975 50.5500231,216.989464 63.8566899,224.664425 C77.6012619,232.590464 100.66852,224.443422 123.130185,204.809231 C124.905501,203.257196 126.687196,201.611293 128.472081,199.886102 C130.785552,202.113904 133.095375,204.222319 135.392897,206.199955 C157.14963,224.922338 178.637969,232.482469 191.932332,224.786092 C205.663234,216.837268 210.125675,192.78347 204.332202,163.5181 C203.88974,161.283006 203.374826,158.99961 202.796573,156.675661 C204.416503,156.196743 206.006814,155.702335 207.557482,155.188332 C236.905331,145.46465 256,129.745175 256,113.667995 C256,98.2510906 238.132466,83.3418093 210.483381,73.8236374 Z" fill="#00D8FF"></path>
        <path d="M201.345395,142.016276 C199.916691,142.497248 198.457301,142.962508 196.969708,143.410161 C194.444378,134.629998 190.989279,125.285375 186.720192,115.647269 C190.72879,106.311267 194.006946,97.1349041 196.429658,88.4898481 C199.158357,89.2815243 201.781422,90.1347635 204.267223,91.0408963 C228.376844,99.3461688 243.387866,111.830344 243.387866,119.169343 C243.387866,126.970254 227.127556,140.077265 201.345395,142.016276 Z" fill="#00D8FF"></path>
        <path d="M171.410783,147.892424 C173.301704,152.517544 175.048591,157.03572 176.622196,161.397625 C168.305843,163.095644 159.303889,164.200261 149.921376,164.649264 C145.243539,157.756794 140.427257,150.243876 135.608273,142.251542 C140.384909,134.358407 145.156086,126.899379 149.831326,120.002944 C159.177087,120.477414 168.111683,121.590529 176.35533,123.289112 C174.859367,127.534829 173.199551,131.878097 171.410783,147.892424 Z" fill="#00D8FF"></path>
        <path d="M107.240824,163.826801 C97.9711466,163.402613 89.1217,162.338142 81.0072936,160.644298 C82.5800461,156.335699 84.3003765,151.884323 86.1581337,147.298199 C90.9186542,155.216419 95.7003268,162.699778 100.424772,169.611776 C102.702775,167.64445 105.023237,165.587871 107.379,163.451785 L107.240824,163.826801 Z" fill="#00D8FF"></path>
        <path d="M64.7119425,142.066201 C39.2918136,140.119873 23.2734669,127.195656 23.2734669,119.169343 C23.2734669,111.830344 37.6915662,99.5910609 61.0892997,91.3510251 C63.8968478,90.3401301 66.8539668,89.3990463 69.9271368,88.5182033 C72.3801626,97.0831143 75.6160445,106.137025 79.5206243,115.301537 C75.5623366,124.636134 72.2545325,133.85283 69.7581292,142.517267 C68.0747689,142.050236 66.4158454,141.557549 64.7119425,142.066201 Z" fill="#00D8FF"></path>
        <path d="M100.558711,77.5316879 C95.7650547,70.5374068 90.9862374,63.9025379 86.3300688,57.8339253 C90.7344428,57.9352635 95.2823291,58.0875774 99.9441341,58.0875774 C104.657701,58.0875774 109.272814,57.9352635 113.742928,57.7815733 C109.166001,63.8509417 104.397583,70.4859655 100.558711,77.5316879 Z" fill="#00D8FF"></path>
        <path d="M128.072757,48.0594338 C133.186969,53.6840251 138.296778,60.0889493 143.261529,67.0075774 C138.295191,66.8613276 133.245139,66.7852525 128.158104,66.7852525 C123.071069,66.7852525 118.031223,66.8613276 113.084405,67.0075774 C118.008578,60.1390277 123.098348,53.7316335 128.072757,48.0594338 Z" fill="#00D8FF"></path>
        <path d="M128.072757,48.0594338 C133.186969,53.6840251 138.296778,60.0889493 143.261529,67.0075774 C138.295191,66.8613276 133.245139,66.7852525 128.158104,66.7852525 C123.071069,66.7852525 118.031223,66.8613276 113.084405,67.0075774 C118.008578,60.1390277 123.098348,53.7316335 128.072757,48.0594338 Z" fill="#00D8FF"></path>
    </g>
</svg>
