<?xml version="1.0" encoding="UTF-8"?>
<svg width="256px" height="256px" viewBox="0 0 256 256" version="1.1" xmlns="http://www.w3.org/2000/svg" preserveAspectRatio="xMidYMid">
    <g>
        <rect fill="#3178C6" x="0" y="0" width="256" height="256" rx="28"></rect>
        <path d="M149.088,178.304 L149.088,204.8 L133.312,204.8 L133.312,178.304 L149.088,178.304 Z M179.2,178.304 L179.2,204.8 L163.424,204.8 L163.424,178.304 L179.2,178.304 Z M152.576,136.704 L152.576,160 L133.312,160 L133.312,136.704 L152.576,136.704 Z M179.2,136.704 L179.2,160 L163.424,160 L163.424,136.704 L179.2,136.704 Z" fill="#FFFFFF"></path>
        <path d="M192,128 L192,51.2 L76.8,51.2 L76.8,128 L192,128 Z M76.8,140.8 L76.8,204.8 L192,204.8 L192,140.8 L76.8,140.8 Z" fill="#FFFFFF"></path>
    </g>
</svg>
