<?xml version="1.0" encoding="UTF-8"?>
<svg width="800" height="400" version="1.1" viewBox="0 0 800 400" xmlns="http://www.w3.org/2000/svg">
 <rect width="800" height="400" fill="#f3f4f6"/>
 <g fill="#9ca3af">
  <path d="m367.66 166.67h64.678v6.6667h-64.678z"/>
  <path d="m367.66 180h64.678v6.6667h-64.678z"/>
  <path d="m367.66 193.33h64.678v6.6667h-64.678z"/>
  <path d="m367.66 206.67h64.678v6.6667h-64.678z"/>
  <path d="m367.66 220h64.678v6.6667h-64.678z"/>
 </g>
 <path d="m400 133.33a13.333 13.333 0 0 0-13.333 13.333 13.333 13.333 0 0 0 13.333 13.333 13.333 13.333 0 0 0 13.333-13.333 13.333 13.333 0 0 0-13.333-13.333zm0 6.6667a6.6667 6.6667 0 0 1 6.6667 6.6667 6.6667 6.6667 0 0 1-6.6667 6.6667 6.6667 6.6667 0 0 1-6.6667-6.6667 6.6667 6.6667 0 0 1 6.6667-6.6667z" fill="#9ca3af"/>
</svg>
