<?xml version="1.0" encoding="UTF-8"?>
<svg width="100" height="100" viewBox="0 0 100 100" fill="none" xmlns="http://www.w3.org/2000/svg">
  <path d="M50 33.333C41.667 33.333 36.458 37.5 34.375 45.833C37.5 41.667 41.146 40.625 45.313 42.708C47.688 43.896 49.396 45.625 51.271 47.521C54.375 50.667 57.917 54.167 66.667 54.167C75 54.167 80.208 50 82.292 41.667C79.167 45.833 75.521 46.875 71.354 44.792C68.979 43.604 67.271 41.875 65.396 39.979C62.292 36.833 58.75 33.333 50 33.333ZM33.333 54.167C25 54.167 19.792 58.333 17.708 66.667C20.833 62.5 24.479 61.458 28.646 63.542C31.021 64.729 32.729 66.458 34.604 68.354C37.708 71.5 41.25 75 50 75C58.333 75 63.542 70.833 65.625 62.5C62.5 66.667 58.854 67.708 54.688 65.625C52.313 64.438 50.604 62.708 48.729 60.813C45.625 57.667 42.083 54.167 33.333 54.167Z" fill="#06B6D4"/>
</svg>
